<svg xmlns="http://www.w3.org/2000/svg" width="30.076" height="15.04" viewBox="0 0 30.076 15.04">
  <path id="Icon_awesome-gamepad" data-name="Icon awesome-gamepad" d="M22.56,6.75H7.52a7.52,7.52,0,1,0,5.367,12.784h4.3A7.519,7.519,0,1,0,22.56,6.75ZM12.032,15.21a.566.566,0,0,1-.564.564H9.024v2.444a.566.566,0,0,1-.564.564H6.58a.566.566,0,0,1-.564-.564V15.774H3.572a.566.566,0,0,1-.564-.564V13.33a.566.566,0,0,1,.564-.564H6.016V10.322a.566.566,0,0,1,.564-.564H8.46a.566.566,0,0,1,.564.564v2.444h2.444a.566.566,0,0,1,.564.564Zm8.648,3.2a2.256,2.256,0,1,1,2.256-2.256A2.257,2.257,0,0,1,20.68,18.406Zm3.76-3.76A2.256,2.256,0,1,1,26.7,12.39,2.257,2.257,0,0,1,24.44,14.646Z" transform="translate(0 -6.75)" fill="#c9ccde"/>
</svg>
